<svg xmlns="http://www.w3.org/2000/svg" viewBox="0 0 464 225"><defs><style>.a{fill:none;opacity:0.31;}.b{fill:#212121;}.c{fill:#b71c1c;}</style></defs><title>tycoon-color</title><rect class="a" width="464" height="225"/><polygon class="b" points="208.02 96 200.02 80 184.02 80 152.02 80 152.02 96 168.02 96 168.02 144 184.02 144 184.02 96 192.02 96 200.02 112 200.02 144 216.02 144 216.02 112 232.02 80 216.02 80 208.02 96"/><polygon class="b" points="400.02 80 400.02 112 384.02 80 368.02 80 368.02 144 384.02 144 384.02 112 400.02 144 416.02 144 416.02 80 400.02 80"/><polygon class="b" points="232.02 80 232.02 96 232.02 128 232.02 144 255.94 144 263.94 128 248.02 128 248.02 96 264 96 272.02 80 248.02 80 232.02 80"/><path class="b" d="M272,80v64h40V80H272Zm16,16h8v32h-8Z"/><path class="b" d="M320,144h40V80H320Zm16-48h8v32h-8Z"/><path class="c" d="M48,143.78l48,34,48-34V56L96,48,48,56ZM64,92l16-2.65v58.81L64,136.54Zm40,62-8,5.91L88,154V80L64,84V69.37L96,64l32,5.33V84.05l-24-4Zm24.06-17.47L112,148.19V89.38L128,92Z"/></svg>